<svg xmlns="http://www.w3.org/2000/svg" version="1.1" xmlns:xlink="http://www.w3.org/1999/xlink" xmlns:svgjs="http://svgjs.com/svgjs" width="512" height="512"><svg version="1.1" id="SvgjsSvg1000" xmlns="http://www.w3.org/2000/svg" xmlns:xlink="http://www.w3.org/1999/xlink" x="0px" y="0px" viewBox="0 0 512 512" style="enable-background:new 0 0 512 512;" xml:space="preserve">
<path style="fill:#E86C16;" d="M390.536,44.936v98.043c27.074,0,49.021-21.947,49.021-49.021S417.61,44.936,390.536,44.936z"></path>
<g>
	<path style="fill:#FE9528;" d="M406.877,93.957c0-27.074-7.316-49.021-16.34-49.021c-27.074,0-49.021,21.947-49.021,49.021
		s21.947,49.021,49.021,49.021C399.56,142.979,406.877,121.031,406.877,93.957z"></path>
	<path style="fill:#FE9528;" d="M461.413,142.737c-1.381,0-2.779-0.35-4.062-1.087c-3.913-2.247-5.263-7.24-3.015-11.153
		c6.367-11.083,9.732-23.718,9.732-36.539c0-40.546-32.986-73.532-73.532-73.532c-32.507,0-60.755,20.866-70.289,51.921
		c-1.326,4.314-5.898,6.733-10.208,5.413c-4.314-1.325-6.738-5.896-5.413-10.208c5.524-17.993,16.895-34.156,32.014-45.508
		c15.644-11.749,34.281-17.958,53.896-17.958c49.555,0,89.872,40.317,89.872,89.872c0,15.674-4.116,31.122-11.903,44.678
		C466.996,141.265,464.243,142.737,461.413,142.737z"></path>
	<path style="fill:#FE9528;" d="M390.536,183.83c-36.198,0-68.701-21.545-82.805-54.89c-1.758-4.156,0.186-8.95,4.341-10.707
		c4.154-1.756,8.949,0.185,10.707,4.341c11.541,27.285,38.136,44.914,67.755,44.914c4.513,0,8.17,3.657,8.17,8.17
		C398.705,180.172,395.049,183.83,390.536,183.83z"></path>
</g>
<polygon style="fill:#A3DC93;" points="472.238,260.085 450.451,384 472.238,507.915 504.919,507.915 504.919,260.085 "></polygon>
<rect x="9.26" y="260.085" style="fill:#CAED73;" width="462.979" height="247.83"></rect>
<polygon style="fill:#4393A8;" points="125.485,177.102 91.67,161.512 77.699,268.984 107.302,376.455 139.983,376.455 "></polygon>
<polygon style="fill:#55B9D3;" points="78.226,155.315 56.439,177.102 41.94,376.455 107.302,376.455 91.67,161.512 "></polygon>
<polygon style="fill:#4393A8;" points="457.74,177.102 435.953,155.315 423.879,160.88 409.931,268.668 439.557,376.455 
	472.238,376.455 "></polygon>
<polygon style="fill:#55B9D3;" points="388.694,177.102 374.196,376.455 439.557,376.455 423.879,160.88 "></polygon>
<polygon style="fill:#4393A8;" points="314.083,109.561 279.84,88.078 279.84,264.947 305.566,441.817 338.247,441.817 "></polygon>
<path style="fill:#55B9D3;" d="M261.991,76.881l-32.681,65.362c-17.974,0-33.747,14.667-35.051,32.595l-19.417,266.98h130.723
	L279.84,88.078L261.991,76.881z"></path>
<path d="M390.536,36.766c-31.535,0-57.191,25.657-57.191,57.191s25.657,57.191,57.191,57.191s57.191-25.657,57.191-57.191
	S422.071,36.766,390.536,36.766z M390.536,134.809c-22.526,0-40.851-18.325-40.851-40.851s18.325-40.851,40.851-40.851
	c22.526,0,40.851,18.325,40.851,40.851S413.062,134.809,390.536,134.809z"></path>
<path d="M503.83,251.915h-32.458l-5.484-75.406c-0.143-1.958-0.984-3.796-2.372-5.185l-21.787-21.787
	c-2.421-2.418-6.091-3.071-9.197-1.643l-47.259,21.787c-2.702,1.246-4.513,3.861-4.729,6.828l-5.484,75.406h-42.433l-10.396-142.946
	c-0.19-2.596-1.604-4.946-3.807-6.329l-52.091-32.681c-1.953-1.226-4.331-1.567-6.548-0.946c-2.218,0.622-4.071,2.153-5.101,4.213
	l-30.589,61.177c-19.952,2.548-36.501,19.443-37.984,39.84l-5.648,77.67h-41.345l-5.484-75.406
	c-0.216-2.967-2.026-5.582-4.729-6.828l-47.259-21.787c-3.108-1.43-6.778-0.777-9.197,1.643l-21.787,21.787
	c-1.387,1.388-2.229,3.228-2.372,5.185l-5.484,75.406H8.17c-4.513,0-8.17,3.657-8.17,8.17c0,4.513,3.657,8.17,8.17,8.17h33.448
	l-7.826,107.607c-0.164,2.264,0.62,4.494,2.166,6.156c1.546,1.661,3.713,2.607,5.983,2.607h98.043c2.27,0,4.437-0.944,5.983-2.607
	c1.546-1.662,2.331-3.892,2.166-6.156l-7.826-107.607h38.968l-12.579,172.97c-0.164,2.264,0.62,4.494,2.166,6.156
	c1.546,1.661,3.713,2.607,5.983,2.607h163.404c2.27,0,4.437-0.944,5.983-2.607c1.546-1.662,2.331-3.892,2.166-6.156l-12.58-172.969
	h40.057l-7.826,107.607c-0.164,2.264,0.62,4.494,2.166,6.156c1.546,1.661,3.713,2.607,5.983,2.607h98.064
	c4.513,0,8.17-3.657,8.17-8.17c0-0.407-0.029-0.808-0.087-1.2l-7.782-107h31.27c4.513,0,8.17-3.657,8.17-8.17
	C512,255.571,508.343,251.915,503.83,251.915z M50.726,368.285l13.64-187.556l15.611-15.609l37.708,17.384l13.51,185.782
	L50.726,368.285L50.726,368.285z M183.628,433.647l18.78-258.217c0.985-13.56,13.305-25.017,26.902-25.017
	c3.095,0,5.924-1.748,7.307-4.516l28.656-57.311l40.961,25.698l23.226,319.364L183.628,433.647L183.628,433.647z M382.981,368.285
	l13.51-185.782l37.708-17.384l15.611,15.609l13.64,187.556H382.981z"></path>
<path d="M142.162,423.489c-4.513,0-8.17,3.657-8.17,8.17v10.894c0,4.513,3.657,8.17,8.17,8.17s8.17-3.657,8.17-8.17V431.66
	C150.332,427.146,146.675,423.489,142.162,423.489z"></path>
<path d="M370.928,423.489c-4.513,0-8.17,3.657-8.17,8.17v10.894c0,4.513,3.657,8.17,8.17,8.17c4.513,0,8.17-3.657,8.17-8.17V431.66
	C379.098,427.146,375.441,423.489,370.928,423.489z"></path>
<path d="M438.468,456.17c-4.513,0-8.17,3.657-8.17,8.17v10.894c0,4.513,3.657,8.17,8.17,8.17c4.513,0,8.17-3.657,8.17-8.17V464.34
	C446.638,459.827,442.981,456.17,438.468,456.17z"></path>
<path d="M109.481,456.17c-4.513,0-8.17,3.657-8.17,8.17v10.894c0,4.513,3.657,8.17,8.17,8.17s8.17-3.657,8.17-8.17V464.34
	C117.651,459.827,113.994,456.17,109.481,456.17z"></path>
<circle cx="423.217" cy="302.919" r="8.17"></circle>
<circle cx="272.885" cy="368.281" r="8.17"></circle>
<circle cx="240.204" cy="400.961" r="8.17"></circle>
<g>
</g>
<g>
</g>
<g>
</g>
<g>
</g>
<g>
</g>
<g>
</g>
<g>
</g>
<g>
</g>
<g>
</g>
<g>
</g>
<g>
</g>
<g>
</g>
<g>
</g>
<g>
</g>
<g>
</g>
</svg><style>@media (prefers-color-scheme: light) { :root { filter: none; } }
</style></svg>