<?xml version="1.0" encoding="iso-8859-1"?>
<!-- Generator: Adobe Illustrator 19.0.0, SVG Export Plug-In . SVG Version: 6.00 Build 0)  -->
<svg version="1.1" id="Layer_1" xmlns="http://www.w3.org/2000/svg" xmlns:xlink="http://www.w3.org/1999/xlink" x="0px" y="0px"
	 viewBox="0 0 512 512" style="enable-background:new 0 0 512 512; fill: #fff;" xml:space="preserve">
<g>
	<g>
		<g>
			<path d="M332.284,427.625c0.914,0.332,1.846,0.489,2.764,0.489c3.302,0,6.403-2.038,7.598-5.322l39.285-107.933l7.596,2.765
				c8.793,3.2,18.306,2.784,26.788-1.17c8.481-3.955,14.914-10.975,18.114-19.767c3.2-8.793,2.785-18.306-1.169-26.787
				c-3.955-8.481-10.975-14.914-19.768-18.114l-7.597-2.765l8.294-22.79c3.557-9.774-1.5-20.619-11.274-24.177l-60.774-22.12
				c-9.777-3.556-20.618,1.502-24.178,11.275l-2.381,6.542c-1.527,4.195,0.637,8.834,4.831,10.362
				c4.196,1.526,8.834-0.636,10.362-4.832l2.381-6.541c0.508-1.397,2.058-2.12,3.454-1.611l60.774,22.12
				c1.397,0.508,2.119,2.058,1.61,3.454l-8.294,22.79l-31.862-11.597c-4.199-1.527-8.834,0.636-10.362,4.832
				c-1.527,4.195,0.637,8.834,4.831,10.362l39.446,14.356c0.004,0.001,0.009,0.003,0.013,0.005c0.003,0.001,0.006,0.002,0.01,0.003
				l15.184,5.526c4.735,1.724,8.514,5.187,10.644,9.753c2.13,4.567,2.353,9.689,0.63,14.424c-1.724,4.734-5.187,8.514-9.754,10.643
				c-4.567,2.13-9.689,2.352-14.423,0.63l-0.03-0.011c-4.721-1.727-8.49-5.186-10.614-9.742c-2.13-4.566-2.353-9.689-0.63-14.423
				c1.527-4.195-0.636-8.834-4.831-10.362c-4.196-1.53-8.834,0.636-10.362,4.831c-2.322,6.379-2.741,13.137-1.285,19.606
				l-37.903-13.796c-4.201-1.526-8.836,0.637-10.362,4.832c-1.527,4.195,0.637,8.834,4.831,10.362l42.867,15.603l-39.285,107.933
				C325.924,421.459,328.088,426.097,332.284,427.625z"/>
			<path d="M9.737,80.485c0.791,0.242,1.591,0.359,2.378,0.359c3.456,0,6.656-2.236,7.724-5.712
				C30.676,39.864,62.77,16.168,99.705,16.168c24.561,0,47.776,10.747,63.694,29.484c2.891,3.402,7.993,3.818,11.394,0.927
				c3.403-2.891,3.818-7.993,0.927-11.396C156.726,12.824,129.019,0,99.705,0C77.946,0,57.271,6.886,39.912,19.912
				C23.133,32.504,10.515,50.428,4.384,70.383C3.073,74.651,5.469,79.174,9.737,80.485z"/>
			<path d="M398.559,292.809c0.912,0.332,1.845,0.489,2.763,0.489c3.304,0,6.404-2.038,7.598-5.322l0.369-1.012
				c1.526-4.195-0.636-8.834-4.832-10.361c-4.198-1.528-8.834,0.638-10.361,4.832l-0.369,1.012
				C392.201,286.643,394.364,291.283,398.559,292.809z"/>
			<path d="M342.232,59.284h26.947c4.466,0,8.084-3.62,8.084-8.084s-3.619-8.084-8.084-8.084h-26.947
				c-7.43,0-13.474-6.044-13.474-13.474c0-7.43,6.044-13.474,13.474-13.474h53.895c7.43,0,13.474,6.044,13.474,13.474
				c0,7.43-6.044,13.474-13.474,13.474c-4.466,0-8.084,3.62-8.084,8.084s3.618,8.084,8.084,8.084
				c16.344,0,29.642-13.297,29.642-29.642C425.769,13.297,412.47,0,396.126,0h-53.895c-16.344,0-29.642,13.297-29.642,29.642
				C312.59,45.987,325.888,59.284,342.232,59.284z"/>
			<path d="M302.74,425.279c0.914,0.332,1.846,0.489,2.764,0.489c3.302,0,6.403-2.039,7.598-5.322l30.005-82.437
				c1.527-4.196-0.637-8.834-4.831-10.362c-4.202-1.527-8.834,0.637-10.362,4.831l-30.005,82.438
				C296.381,419.112,298.546,423.752,302.74,425.279z"/>
			<path d="M339.418,233.431c1.527-4.196-0.637-8.834-4.831-10.362l-32.514-11.834c-18.154-6.606-38.293,2.785-44.901,20.937
				c-3.2,8.793-2.785,18.306,1.169,26.787c3.955,8.481,10.975,14.914,19.768,18.114c3.911,1.423,7.962,2.131,12.003,2.131
				c5.046,0,10.075-1.105,14.784-3.3c8.481-3.955,14.914-10.975,18.114-19.769c1.526-4.196-0.637-8.834-4.832-10.362
				c-4.199-1.527-8.834,0.637-10.361,4.832c-1.724,4.735-5.187,8.514-9.754,10.644c-4.567,2.13-9.689,2.352-14.423,0.63
				c-4.735-1.724-8.514-5.187-10.644-9.753c-2.13-4.567-2.353-9.689-0.63-14.423c3.557-9.773,14.402-14.834,24.177-11.274
				l32.514,11.834C333.256,239.787,337.891,237.625,339.418,233.431z"/>
			<path d="M252.154,479.173c0.914,0.332,1.846,0.489,2.764,0.489c3.302,0,6.403-2.039,7.598-5.322l53.244-146.285
				c1.526-4.195-0.637-8.834-4.831-10.362c-4.202-1.527-8.836,0.637-10.362,4.832l-53.244,146.285
				C245.795,473.006,247.959,477.645,252.154,479.173z"/>
			<path d="M293.039,236.05c-4.199-1.527-8.833,0.639-10.361,4.832l-0.369,1.012c-1.526,4.196,0.637,8.834,4.832,10.361
				c0.913,0.332,1.846,0.489,2.763,0.489c3.303,0,6.403-2.039,7.598-5.322l0.369-1.012
				C299.398,242.216,297.235,237.577,293.039,236.05z"/>
			<path d="M398.821,105.094c0,16.344,13.298,29.642,29.642,29.642h53.895c16.344,0,29.642-13.297,29.642-29.642
				c0-16.345-13.298-29.641-29.642-29.641h-28.744c-4.466,0-8.084,3.62-8.084,8.084c0,4.465,3.618,8.084,8.084,8.084h28.744
				c7.43,0,13.474,6.044,13.474,13.474s-6.044,13.474-13.474,13.474h-53.895c-7.43,0-13.474-6.044-13.474-13.474
				s6.044-13.474,13.474-13.474c4.466,0,8.084-3.62,8.084-8.084c0-4.465-3.618-8.084-8.084-8.084
				C412.119,75.453,398.821,88.75,398.821,105.094z"/>
			<path d="M471.368,461.663l1.078-1.078c3.157-3.157,3.157-8.276,0-11.432c-3.158-3.157-8.276-3.157-11.433,0l-1.078,1.078
				c-3.157,3.157-3.157,8.276,0,11.432c1.579,1.578,3.649,2.368,5.717,2.368C467.72,464.031,469.789,463.241,471.368,461.663z"/>
			<path d="M99.705,199.409c5.901,0,11.818-0.521,17.585-1.548c4.396-0.783,7.324-4.98,6.542-9.375
				c-0.783-4.397-4.986-7.323-9.376-6.542c-4.834,0.86-9.798,1.297-14.752,1.297c-46.062,0-83.537-37.474-83.537-83.537
				c0-4.465-3.618-8.084-8.084-8.084C3.618,91.62,0,95.24,0,99.705C0,154.682,44.727,199.409,99.705,199.409z"/>
			<path d="M207.25,85.946c1.527-4.196-0.636-8.834-4.831-10.362l-29.694-10.808c-18.154-6.608-38.293,2.786-44.901,20.937
				c-3.2,8.792-2.785,18.306,1.169,26.786c3.955,8.481,10.975,14.914,19.768,18.114c3.911,1.423,7.962,2.132,12.003,2.131
				c5.047,0,10.075-1.105,14.784-3.301c8.481-3.955,14.914-10.975,18.114-19.768c1.526-4.196-0.637-8.834-4.832-10.362
				c-4.196-1.527-8.834,0.637-10.361,4.832c-1.724,4.734-5.187,8.514-9.754,10.643c-4.567,2.13-9.688,2.353-14.423,0.63
				s-8.514-5.187-10.644-9.753c-2.13-4.566-2.353-9.689-0.629-14.423c3.558-9.775,14.404-14.832,24.177-11.274l29.694,10.808
				C201.084,92.303,205.723,90.141,207.25,85.946z"/>
			<path d="M269.214,146.351c0.913,0.332,1.845,0.489,2.763,0.489c3.303,0,6.404-2.039,7.599-5.324l0.369-1.013
				c1.525-4.196-0.639-8.834-4.834-10.36c-4.2-1.525-8.834,0.639-10.361,4.834l-0.369,1.013
				C262.853,140.187,265.018,144.826,269.214,146.351z"/>
			<path d="M503.916,495.829h-5.938c2.073-4.044,3.243-8.625,3.243-13.474v-29.948c0-8.388-3.575-16.417-9.81-22.03
				c-6.235-5.613-14.589-8.328-22.935-7.449l-161.684,17.019c-15.129,1.593-26.539,14.266-26.539,29.479v12.929
				c0,4.848,1.171,9.428,3.243,13.474h-59.199l71.177-195.554c1.527-4.195-0.636-8.834-4.831-10.362
				c-4.201-1.527-8.836,0.637-10.362,4.832l-73.189,201.083H133.41l119.173-327.428l7.579,2.758
				c0.005,0.001,0.012,0.004,0.017,0.006c0.003,0.001,0.008,0.002,0.011,0.003c8.789,3.197,18.299,2.781,26.777-1.173
				c8.481-3.955,14.914-10.975,18.114-19.768c3.2-8.793,2.785-18.306-1.169-26.787c-3.955-8.481-10.975-14.914-19.768-18.114
				l-7.597-2.765l8.294-22.79c3.557-9.773-1.502-20.619-11.274-24.177l-60.774-22.118c-9.773-3.559-20.619,1.498-24.178,11.274
				l-3.141,8.63c-1.527,4.195,0.637,8.834,4.831,10.362c4.2,1.526,8.834-0.637,10.362-4.832l3.141-8.629
				c0.509-1.397,2.058-2.121,3.454-1.611l60.774,22.118c1.396,0.509,2.119,2.059,1.61,3.455l-8.294,22.789l-34.254-12.468
				c-4.201-1.527-8.836,0.637-10.362,4.832c-1.527,4.195,0.637,8.834,4.831,10.362l41.821,15.221
				c0.011,0.003,0.021,0.008,0.03,0.012c0.01,0.004,0.02,0.006,0.03,0.011l15.163,5.52c4.735,1.724,8.514,5.187,10.644,9.753
				c2.13,4.567,2.353,9.689,0.63,14.424c-1.724,4.735-5.187,8.514-9.754,10.644c-4.567,2.129-9.69,2.353-14.423,0.63l-0.025-0.009
				c-9.758-3.567-14.803-14.403-11.249-24.167c1.527-4.196-0.636-8.834-4.831-10.362c-4.197-1.526-8.836,0.636-10.362,4.831
				c-2.374,6.521-2.682,13.3-1.261,19.616l-40.451-14.724c-4.202-1.526-8.836,0.637-10.362,4.832
				c-1.527,4.195,0.636,8.834,4.831,10.362l45.39,16.521L116.2,495.831H41.642l124.372-341.706
				c1.527-4.195-0.637-8.834-4.831-10.362c-4.201-1.527-8.836,0.637-10.362,4.832L24.436,495.829H8.084
				c-4.466,0-8.084,3.62-8.084,8.084c0,4.465,3.619,8.084,8.084,8.084h113.591c0.127,0.003,0.251,0.003,0.375,0h90.514
				c0.064,0.001,0.125,0.002,0.188,0.002c0.064,0,0.125,0,0.188-0.002h184.536c4.466,0,8.084-3.62,8.084-8.084
				c0-4.465-3.619-8.084-8.084-8.084h-87.58c-7.43,0-13.474-6.044-13.474-13.474v-12.929c0-6.915,5.187-12.676,12.063-13.399
				l161.684-17.019c3.849-0.405,7.551,0.798,10.425,3.386c2.876,2.588,4.459,6.145,4.459,10.014v29.948
				c0,7.43-6.044,13.474-13.474,13.474h-43.385c-4.466,0-8.084,3.62-8.084,8.084c0,4.465,3.618,8.084,8.084,8.084h75.722
				c4.466,0,8.084-3.62,8.084-8.084C512,499.448,508.382,495.829,503.916,495.829z"/>
			<path d="M99.705,59.284c8.039,0,15.802,2.352,22.448,6.8c3.709,2.483,8.731,1.489,11.214-2.222
				c2.483-3.71,1.49-8.732-2.222-11.214c-9.316-6.237-20.189-9.533-31.441-9.533c-31.203,0-56.589,25.385-56.589,56.589
				s25.387,56.589,56.589,56.589c11.252,0,22.126-3.297,31.444-9.534c3.71-2.483,4.705-7.504,2.222-11.214
				c-2.483-3.71-7.503-4.705-11.214-2.221c-6.647,4.45-14.411,6.803-22.45,6.803c-22.289,0-40.421-18.132-40.421-40.421
				S77.417,59.284,99.705,59.284z"/>
			<path d="M183.655,165.567c-4.196-1.534-8.836,0.625-10.367,4.818L64.225,468.801c-1.533,4.193,0.624,8.836,4.818,10.368
				c0.916,0.335,1.853,0.494,2.773,0.494c3.299,0,6.396-2.034,7.594-5.311l109.062-298.416
				C190.005,171.741,187.848,167.1,183.655,165.567z"/>
			<path d="M163.691,89.591c-4.2-1.527-8.833,0.638-10.361,4.832l-0.369,1.012c-1.526,4.196,0.637,8.834,4.832,10.361
				c0.913,0.332,1.846,0.489,2.763,0.489c3.303,0,6.403-2.039,7.598-5.322l0.369-1.012
				C170.051,95.757,167.888,91.118,163.691,89.591z"/>
			<path d="M100.03,479.169c0.916,0.335,1.853,0.494,2.773,0.494c3.299,0,6.396-2.034,7.594-5.312L215.82,185.888
				c1.533-4.193-0.624-8.836-4.818-10.368c-4.198-1.533-8.836,0.625-10.367,4.818L95.212,468.801
				C93.679,472.994,95.836,477.637,100.03,479.169z"/>
		</g>
	</g>
</g>
</svg>
