<?xml version="1.0" encoding="iso-8859-1"?>
<!-- Generator: Adobe Illustrator 19.0.0, SVG Export Plug-In . SVG Version: 6.00 Build 0)  -->
<svg version="1.1" id="Layer_1" xmlns="http://www.w3.org/2000/svg" xmlns:xlink="http://www.w3.org/1999/xlink" x="0px" y="0px"
	 viewBox="0 0 512 512" style="enable-background:new 0 0 512 512; fill: #fff;" xml:space="preserve">
<g>
	<g>
		<path d="M390.536,49.021c-31.535,0-57.192,25.657-57.192,57.191s25.657,57.191,57.192,57.191
			c31.535,0,57.191-25.657,57.191-57.191S422.071,49.021,390.536,49.021z M390.536,147.064c-22.526,0-40.851-18.325-40.851-40.851
			s18.325-40.851,40.851-40.851c22.526,0,40.851,18.325,40.851,40.851S413.062,147.064,390.536,147.064z"/>
	</g>
</g>
<g>
	<g>
		<path d="M390.536,16.34c-19.615,0-38.252,6.209-53.897,17.957c-15.119,11.353-26.489,27.516-32.014,45.508
			c-1.324,4.314,1.1,8.885,5.413,10.21c4.311,1.32,8.883-1.099,10.208-5.413c9.535-31.055,37.783-51.921,70.29-51.921
			c40.546,0,73.532,32.986,73.532,73.532c0,12.822-3.365,25.456-9.731,36.539c-2.247,3.913-0.898,8.907,3.015,11.153
			c1.283,0.737,2.681,1.087,4.062,1.087c2.83,0,5.582-1.473,7.092-4.103c7.787-13.555,11.902-29.003,11.902-44.677
			C480.409,56.658,440.091,16.34,390.536,16.34z"/>
	</g>
</g>
<g>
	<g>
		<path d="M503.83,264.17h-32.458l-5.484-75.406c-0.143-1.958-0.984-3.796-2.372-5.185l-21.787-21.787
			c-2.421-2.418-6.091-3.071-9.197-1.643l-42.483,19.586c-28.99-0.19-55.004-17.264-66.742-43.723l-1.075-14.788
			c-0.19-2.596-1.604-4.946-3.807-6.329l-52.091-32.681c-1.953-1.226-4.331-1.567-6.548-0.946c-2.218,0.622-4.071,2.153-5.102,4.213
			l-30.589,61.177c-19.952,2.548-36.501,19.443-37.984,39.84l-5.648,77.67h-41.345l-5.484-75.406
			c-0.216-2.967-2.026-5.582-4.729-6.828l-47.259-21.787c-3.108-1.43-6.778-0.777-9.197,1.643l-21.787,21.787
			c-1.387,1.388-2.229,3.228-2.372,5.185l-5.484,75.406H8.17c-4.513,0-8.17,3.657-8.17,8.17s3.657,8.17,8.17,8.17h33.448
			l-7.826,107.607c-0.164,2.264,0.62,4.494,2.166,6.156c1.546,1.661,3.713,2.607,5.983,2.607h98.043c2.27,0,4.437-0.945,5.983-2.607
			c1.546-1.662,2.331-3.892,2.166-6.156l-7.826-107.607h38.968l-12.579,172.97c-0.164,2.264,0.62,4.494,2.166,6.156
			c1.546,1.661,3.713,2.607,5.983,2.607h163.404c2.27,0,4.437-0.944,5.983-2.607c1.546-1.662,2.331-3.892,2.166-6.156
			l-12.579-172.969h40.057l-7.826,107.607c-0.164,2.264,0.62,4.494,2.166,6.156c1.546,1.661,3.713,2.607,5.983,2.607h98.064
			c4.513,0,8.17-3.657,8.17-8.17c0-0.407-0.029-0.808-0.087-1.2l-7.782-107h31.269c4.513,0,8.17-3.657,8.17-8.17
			S508.343,264.17,503.83,264.17z M50.726,380.54l13.64-187.557l15.611-15.609l37.708,17.384l13.51,185.782H50.726z
			 M183.628,445.902l18.779-258.217c0.985-13.56,13.305-25.017,26.902-25.017c3.095,0,5.924-1.748,7.307-4.516l28.656-57.311
			l40.961,25.698l0.882,12.13c0.005,0.063,0.008,0.126,0.014,0.191l22.331,307.043H183.628z M375.061,264.17h-42.433l-6.961-95.714
			c14.28,14.895,33.431,24.576,54.39,27.015L375.061,264.17z M382.981,380.54l13.51-185.782l37.708-17.384l15.611,15.609
			l13.64,187.557H382.981z"/>
	</g>
</g>
<g>
	<g>
		<path d="M142.162,435.745c-4.513,0-8.17,3.657-8.17,8.17v10.894c0,4.513,3.657,8.17,8.17,8.17c4.513,0,8.17-3.657,8.17-8.17
			v-10.894C150.332,439.402,146.675,435.745,142.162,435.745z"/>
	</g>
</g>
<g>
	<g>
		<path d="M370.928,435.745c-4.513,0-8.17,3.657-8.17,8.17v10.894c0,4.513,3.657,8.17,8.17,8.17s8.17-3.657,8.17-8.17v-10.894
			C379.098,439.402,375.441,435.745,370.928,435.745z"/>
	</g>
</g>
<g>
	<g>
		<path d="M438.468,468.426c-4.513,0-8.17,3.657-8.17,8.17v10.894c0,4.513,3.657,8.17,8.17,8.17s8.17-3.657,8.17-8.17v-10.894
			C446.638,472.083,442.981,468.426,438.468,468.426z"/>
	</g>
</g>
<g>
	<g>
		<path d="M109.481,468.426c-4.513,0-8.17,3.657-8.17,8.17v10.894c0,4.513,3.657,8.17,8.17,8.17c4.513,0,8.17-3.657,8.17-8.17
			v-10.894C117.651,472.083,113.994,468.426,109.481,468.426z"/>
	</g>
</g>
<g>
	<g>
		<circle cx="423.217" cy="315.174" r="8.17"/>
	</g>
</g>
<g>
	<g>
		<circle cx="272.885" cy="380.536" r="8.17"/>
	</g>
</g>
<g>
	<g>
		<circle cx="240.204" cy="413.217" r="8.17"/>
	</g>
</g>
</svg>
