<?xml version="1.0" encoding="iso-8859-1"?>
<!-- Generator: Adobe Illustrator 19.0.0, SVG Export Plug-In . SVG Version: 6.00 Build 0)  -->
<svg version="1.1" id="Layer_1" xmlns="http://www.w3.org/2000/svg" xmlns:xlink="http://www.w3.org/1999/xlink" x="0px" y="0px"
	 viewBox="0 0 203.032 203.032" style="enable-background:new 0 0 203.032 203.032; fill: #fff;" xml:space="preserve">
<g>
	<g>
		<g>
			<path d="M203.032,149.989h-0.001H192.5v-49h7c1.933,0,3.5-1.567,3.5-3.5v-42c0-1.933-1.567-3.5-3.5-3.5H147
				c-1.933,0-3.5,1.567-3.5,3.5v38.5h-14v-7c0-1.933-1.567-3.5-3.5-3.5H66.5c-1.933,0-3.5,1.567-3.5,3.5v7H52.5v-14h7
				c1.933,0,3.5-1.567,3.5-3.5v-14c0-1.933-1.567-3.5-3.5-3.5H28c-1.933,0-3.5,1.567-3.5,3.5v14c0,1.933,1.567,3.5,3.5,3.5h7v14
				H23.251c-1.247,0-2.401,0.665-3.026,1.743l-16.251,28c-0.631,1.087-0.631,2.427,0,3.514l13.2,22.743H0v7h6.166
				c-1.681,2.505-2.666,5.514-2.666,8.75c0,8.685,7.065,15.75,15.75,15.75S35,174.424,35,165.739c0-3.236-0.986-6.245-2.666-8.75
				h9.909c1.731,13.79,13.506,24.5,27.757,24.5s26.026-10.71,27.757-24.5h3.986c1.731,13.79,13.506,24.5,27.757,24.5
				c14.251,0,26.026-10.71,27.757-24.5h13.409c-1.68,2.505-2.665,5.513-2.665,8.75c0,8.685,7.065,15.75,15.75,15.75
				s15.75-7.065,15.75-15.75c0-3.236-0.986-6.245-2.666-8.75h6.197V149.989z M150.5,58.989H196v35h-7h-38.5V58.989z M31.5,72.989v-7
				H56v7h-7H38.5H31.5z M45.5,79.989v14H42v-14H45.5z M19.25,174.489c-4.824,0-8.75-3.926-8.75-8.75c0-4.824,3.926-8.75,8.75-8.75
				s8.75,3.926,8.75,8.75C28,170.564,24.074,174.489,19.25,174.489z M70,174.489c-10.385,0-19.01-7.584-20.684-17.5h41.368
				C89.01,166.905,80.385,174.489,70,174.489z M129.5,174.489c-10.385,0-19.01-7.584-20.684-17.5h41.368
				C148.51,166.905,139.885,174.489,129.5,174.489z M25.266,149.989l-14.219-24.5l14.219-24.5H38.5H49h17.5
				c1.933,0,3.5-1.567,3.5-3.5v-7h52.5v7c0,1.933,1.567,3.5,3.5,3.5h21h38.5v49H25.266z M183.75,174.489
				c-4.824,0-8.75-3.926-8.75-8.75c0-4.824,3.926-8.75,8.75-8.75c4.824,0,8.75,3.926,8.75,8.75
				C192.5,170.564,188.574,174.489,183.75,174.489z"/>
			<path d="M42.882,53.051c0.193,0.029,0.417,0.05,0.67,0.05c2.251,0,6.797-1.57,11.698-12.223
				c5.753-12.501,16.22-15.436,31.999-8.964l1.14,0.467c21.033,8.627,28.899,11.869,45.343,10.522
				c5.614-0.455,10.117-2.579,14.885-4.83c9.869-4.654,21.06-9.927,47.898-3.022c1.883,0.48,3.78-0.644,4.262-2.516
				c0.482-1.873-0.644-3.78-2.516-4.262c-29.292-7.54-42.232-1.436-52.63,3.469c-4.358,2.056-8.121,3.831-12.465,4.184
				c-14.766,1.191-21.661-1.63-42.121-10.022l-1.14-0.468C65.39,15.382,54.068,26.692,48.89,37.951
				c-3.004,6.53-5.194,7.911-5.657,8.142c-1.63,0.079-3.035,1.297-3.288,2.974C39.655,50.979,40.971,52.762,42.882,53.051z"/>
		</g>
	</g>
</g>
</svg>
