<?xml version="1.0" encoding="iso-8859-1"?>
<!-- Generator: Adobe Illustrator 18.0.0, SVG Export Plug-In . SVG Version: 6.00 Build 0)  -->
<!DOCTYPE svg PUBLIC "-//W3C//DTD SVG 1.1//EN" "http://www.w3.org/Graphics/SVG/1.1/DTD/svg11.dtd">
<svg version="1.1" id="Capa_1" xmlns="http://www.w3.org/2000/svg" xmlns:xlink="http://www.w3.org/1999/xlink" x="0px" y="0px"
	 viewBox="0 0 470.986 470.986" style="enable-background:new 0 0 470.986 470.986;" xml:space="preserve">
<g>
	<path d="M235.323,133.643c-56.159,0-101.848,45.689-101.848,101.848c0,56.16,45.688,101.849,101.848,101.849
		s101.849-45.689,101.849-101.849C337.172,179.332,291.482,133.643,235.323,133.643z M304.956,178.778l-31.627,31.634
		c-3.35-5.06-7.677-9.416-12.718-12.793l31.615-31.608C296.883,169.832,301.148,174.111,304.956,178.778z M322.689,214.497h-36.475
		L312,188.704C316.828,196.586,320.471,205.267,322.689,214.497z M325.172,235.491c0,3.039-0.154,6.043-0.45,9.005h-44.74
		c0.586-2.912,0.898-5.923,0.898-9.005c0-3.079-0.311-6.086-0.896-8.995h44.739C325.019,229.456,325.172,232.456,325.172,235.491z
		 M235.323,269.048c-18.503,0-33.557-15.053-33.557-33.557s15.054-33.557,33.557-33.557s33.557,15.053,33.557,33.557
		S253.826,269.048,235.323,269.048z M145.476,235.491c0-3.035,0.153-6.036,0.449-8.995h44.738c-0.585,2.909-0.896,5.916-0.896,8.995
		c0,3.082,0.312,6.093,0.898,9.005h-44.739C145.629,241.534,145.476,238.53,145.476,235.491z M147.958,214.497
		c2.224-9.253,5.88-17.953,10.725-25.851l25.851,25.851H147.958z M184.763,256.497l-25.987,25.987
		c-4.889-7.934-8.577-16.681-10.814-25.987H184.763z M322.686,256.497c-2.232,9.284-5.907,18.011-10.778,25.929l-25.929-25.929
		H322.686z M256.496,184.765V148.17c9.246,2.242,17.937,5.916,25.825,10.776L256.496,184.765z M244.496,146.108v44.755
		c-2.964-0.608-6.032-0.928-9.173-0.928c-3.02,0-5.97,0.302-8.827,0.866v-44.723c2.905-0.285,5.849-0.434,8.827-0.434
		C238.419,145.643,241.48,145.8,244.496,146.108z M214.496,185.013l-26.107-26.107c7.969-4.902,16.757-8.594,26.107-10.822V185.013z
		 M178.478,165.965l31.616,31.616c-5.045,3.368-9.38,7.715-12.737,12.768l-31.624-31.624
		C169.547,174.06,173.817,169.783,178.478,165.965z M165.84,292.389l31.611-31.611c3.377,5.041,7.734,9.369,12.795,12.72
		l-31.63,31.63C173.945,301.317,169.663,297.049,165.84,292.389z M214.496,286.217v36.681c-9.291-2.214-18.026-5.871-25.955-10.727
		L214.496,286.217z M226.496,324.906v-44.724c2.857,0.563,5.807,0.866,8.827,0.866c3.141,0,6.209-0.32,9.173-0.928v44.755
		c-3.016,0.307-6.077,0.465-9.173,0.465C232.345,325.34,229.401,325.19,226.496,324.906z M256.496,286.458l25.674,25.674
		c-7.847,4.814-16.487,8.454-25.674,10.682V286.458z M292.09,305.081l-31.625-31.625c5.053-3.357,9.4-7.692,12.768-12.737
		l31.616,31.617C301.032,296.998,296.755,301.269,292.09,305.081z"/>
	<path d="M450.202,214.497h-86.668c-3.287-20.142-11.217-38.742-22.66-54.661l61.302-61.302c3.828-3.828,5.942-9.093,5.953-14.836
		c0-5.468-2.257-10.861-6.191-14.796c-8.154-8.155-21.384-8.196-29.485-0.093l-61.277,61.276
		c-15.916-11.485-34.523-19.456-54.68-22.774V20.784c0-5.421-2.224-10.639-6.269-14.7C246.36,2.218,240.956,0,235.4,0
		c-11.526,0-20.904,9.324-20.904,20.784v86.469c-20.266,3.28-38.975,11.261-54.968,22.79L98.414,68.928
		c-3.931-3.931-9.184-6.047-14.841-6.002c-5.573,0.06-10.8,2.25-14.718,6.168c-3.919,3.918-6.11,9.146-6.17,14.719
		c-0.06,5.64,2.072,10.91,6.004,14.84l61.125,61.126c-11.465,15.931-19.411,34.552-22.702,54.718h-86.33
		c-11.46,0-20.783,9.42-20.783,21s9.323,21,20.783,21h86.332c3.302,20.222,11.285,38.888,22.802,54.848l-61.109,61.109
		c-3.931,3.931-6.063,9.201-6.003,14.84c0.06,5.573,2.25,10.8,6.168,14.718c3.919,3.918,9.146,6.109,14.719,6.168
		c0.077,0.001,0.154,0.001,0.231,0.001c5.552,0,10.732-2.127,14.608-6.004l61.135-61.136c15.963,11.474,34.622,19.418,54.828,22.688
		v86.472c0,11.46,9.421,20.784,21,20.784s21-9.324,21-20.784v-86.53c20.098-3.309,38.656-11.241,54.541-22.673l61.296,61.297
		c3.809,3.809,9.084,5.913,14.866,5.923c5.469,0,10.873-2.268,14.825-6.221c8.122-8.122,8.137-21.322,0.033-29.426l-61.286-61.286
		c11.495-15.947,19.463-34.593,22.76-54.79h86.67c5.421,0,10.639-2.223,14.7-6.269c3.866-3.867,6.084-9.271,6.084-14.827
		C470.986,223.874,461.662,214.497,450.202,214.497z M380.938,77.293c3.426-3.425,9.039-3.383,12.516,0.093
		c1.701,1.701,2.677,4.001,2.677,6.3c-0.005,2.498-0.893,4.817-2.438,6.361L333.38,150.36c-3.949-4.542-8.209-8.807-12.744-12.764
		L380.938,77.293z M226.496,20.784c0-4.843,3.994-8.784,8.904-8.784c2.397,0,4.709,0.937,6.334,2.562
		c1.755,1.762,2.762,4.03,2.762,6.222v85.12c-3.031-0.212-6.089-0.328-9.173-0.328c-2.967,0-5.909,0.109-8.827,0.306V20.784z
		 M77.174,90.167c-1.63-1.63-2.514-3.841-2.488-6.227c0.025-2.416,0.968-4.674,2.654-6.36s3.945-2.629,6.361-2.654
		c2.347-0.054,4.598,0.858,6.228,2.488l60.135,60.135c-4.537,3.955-8.799,8.218-12.75,12.759L77.174,90.167z M20.783,244.497
		c-4.761,0-8.783-4.122-8.783-9s4.022-9,8.783-9h84.942c-0.204,2.973-0.317,5.971-0.317,8.995c0,3.028,0.113,6.029,0.318,9.005
		H20.783z M90.047,393.692c-1.629,1.63-3.866,2.518-6.228,2.489c-2.415-0.026-4.674-0.968-6.36-2.655
		c-1.686-1.686-2.628-3.945-2.653-6.36c-0.025-2.386,0.857-4.598,2.487-6.228l60.135-60.135c3.957,4.535,8.222,8.795,12.764,12.744
		L90.047,393.692z M244.496,450.202c0,4.762-4.121,8.784-9,8.784s-9-4.022-9-8.784v-85.101c2.918,0.197,5.86,0.306,8.827,0.306
		c3.084,0,6.142-0.116,9.173-0.328V450.202z M393.573,381.058c1.653,1.654,2.562,3.861,2.557,6.214
		c-0.006,2.359-0.925,4.576-2.591,6.241c-1.694,1.694-4.064,2.706-6.329,2.706c-2.536-0.004-4.866-0.882-6.392-2.408l-60.311-60.311
		c4.54-3.951,8.803-8.213,12.758-12.75L393.573,381.058z M235.323,353.407c-65.019,0-117.915-52.897-117.915-117.916
		s52.896-117.916,117.915-117.916c65.02,0,117.916,52.896,117.916,117.916S300.343,353.407,235.323,353.407z M456.425,241.734
		c-1.762,1.755-4.03,2.762-6.223,2.762h-85.28c0.205-2.976,0.318-5.978,0.318-9.005c0-3.024-0.113-6.022-0.317-8.995h85.28
		c4.844,0,8.784,3.995,8.784,8.904C458.986,237.798,458.05,240.109,456.425,241.734z"/>
</g>
<g>
</g>
<g>
</g>
<g>
</g>
<g>
</g>
<g>
</g>
<g>
</g>
<g>
</g>
<g>
</g>
<g>
</g>
<g>
</g>
<g>
</g>
<g>
</g>
<g>
</g>
<g>
</g>
<g>
</g>
</svg>
