<?xml version="1.0" encoding="iso-8859-1"?>
<!-- Generator: Adobe Illustrator 19.0.0, SVG Export Plug-In . SVG Version: 6.00 Build 0)  -->
<svg version="1.1" id="Capa_1" xmlns="http://www.w3.org/2000/svg" xmlns:xlink="http://www.w3.org/1999/xlink" x="0px" y="0px"
	 viewBox="0 0 470 470" style="enable-background:new 0 0 470 470;" xml:space="preserve">
<g>
	<path d="M401.17,68.83C356.785,24.444,297.771,0,235,0S113.215,24.444,68.83,68.83C24.444,113.215,0,172.229,0,235
		s24.444,121.785,68.83,166.17C113.215,445.556,172.229,470,235,470s121.785-24.444,166.17-68.83
		C445.556,356.785,470,297.771,470,235S445.556,113.215,401.17,68.83z M235,455c-121.309,0-220-98.691-220-220S113.691,15,235,15
		s220,98.691,220,220S356.309,455,235,455z"/>
	<path d="M298.815,171.976c1.429,0,2.875-0.408,4.153-1.26l1.674-1.116c0.773-0.515,1.444-1.17,1.978-1.93
		c7.179-10.22,11.996-21.581,14.318-33.766c0.775-4.069-1.895-7.996-5.964-8.771c-4.065-0.774-7.996,1.895-8.771,5.964
		c-1.836,9.634-5.561,18.65-11.079,26.821l-0.475,0.317c-3.447,2.297-4.378,6.954-2.081,10.4
		C294.013,170.803,296.391,171.976,298.815,171.976z"/>
	<path d="M156.471,140.274c0.474,0,0.956-0.045,1.438-0.139c4.066-0.79,6.722-4.727,5.932-8.792
		c-0.89-4.583-1.342-9.24-1.342-13.842c0-39.977,32.523-72.5,72.5-72.5c34.753,0,64.698,24.772,71.202,58.904
		c0.775,4.068,4.701,6.737,8.771,5.963c4.069-0.775,6.739-4.702,5.964-8.771C313.087,59.9,276.945,30,235,30
		c-48.248,0-87.5,39.252-87.5,87.5c0,5.56,0.544,11.179,1.617,16.703C149.813,137.786,152.953,140.274,156.471,140.274z"/>
	<path d="M271.565,152.359c3.385,2.387,8.064,1.576,10.451-1.81c6.859-9.732,10.484-21.16,10.484-33.049
		c0-31.706-25.794-57.5-57.5-57.5s-57.5,25.794-57.5,57.5c0,12.743,4.108,24.829,11.881,34.953c1.477,1.924,3.703,2.933,5.954,2.933
		c1.594,0,3.2-0.506,4.562-1.552c3.286-2.522,3.904-7.231,1.381-10.516c-5.743-7.48-8.779-16.408-8.779-25.818
		c0-23.435,19.065-42.5,42.5-42.5s42.5,19.065,42.5,42.5c0,8.778-2.678,17.218-7.745,24.408
		C267.369,145.294,268.179,149.973,271.565,152.359z"/>
	<path d="M436.748,253.083c-1.423-1.599-3.462-2.514-5.603-2.514h-54.524l-6.653-73.179c-0.206-2.259-1.422-4.303-3.309-5.561
		l-15-10c-2.52-1.68-5.801-1.68-8.32,0l-30,20c-1.868,1.245-3.079,3.261-3.303,5.494l-6.325,63.246h-20.589l-6.033-75.406
		c-0.24-3-2.25-5.565-5.104-6.517l-46.154-15.384c-3.061-1.019-6.434,0.033-8.372,2.615l-23.077,30.769
		c-0.841,1.121-1.351,2.455-1.472,3.85l-5.224,60.073h-20.665l-7.048-88.099c-0.24-3-2.25-5.565-5.104-6.517l-30-10
		c-3.061-1.019-6.434,0.033-8.372,2.615l-15,20c-0.84,1.121-1.351,2.455-1.472,3.85l-6.796,78.15H38.854
		c-2.141,0-4.18,0.915-5.603,2.514c-1.423,1.599-2.095,3.73-1.847,5.856c5.786,49.506,29.545,95.214,66.902,128.706
		C135.964,421.407,184.509,440,235,440c45.241,0,88.169-14.517,124.145-41.982c3.292-2.514,3.923-7.22,1.41-10.513
		c-2.514-3.292-7.219-3.922-10.513-1.41C316.704,411.547,276.923,425,235,425c-93.564,0-172.738-67.958-187.531-159.431h44.459
		l-1.9,21.85c-0.182,2.094,0.523,4.169,1.943,5.718s3.426,2.432,5.528,2.432h65.02c4.142,0,7.5-3.358,7.5-7.5
		c0-0.393-0.03-0.779-0.088-1.156l-1.708-21.344h18.161l-8.857,101.85c-0.182,2.094,0.523,4.169,1.943,5.718
		s3.426,2.432,5.528,2.432h100c4.162,0,7.52-3.358,7.52-7.5c0-0.393-0.03-0.779-0.088-1.155l-8.108-101.345h17.889l-2.175,21.753
		c-0.211,2.108,0.48,4.208,1.902,5.779c1.422,1.571,3.442,2.467,5.561,2.467l65,0c2.107,0,4.117-0.886,5.538-2.442
		s2.122-3.638,1.931-5.737l-1.984-21.821h44.537c-6.188,37.829-24.078,73.538-50.917,101.33c-2.877,2.979-2.794,7.728,0.185,10.605
		c1.456,1.406,3.333,2.105,5.209,2.105c1.963,0,3.925-0.766,5.396-2.29c31.08-32.185,51.038-74.226,56.199-118.379
		C438.843,256.814,438.171,254.683,436.748,253.083z M105.681,280.569l9.105-104.715l10.471-13.96l20.163,6.721l8.956,111.955
		H105.681z M193.181,360.569l14.49-166.638l18.547-24.729l36.316,12.105l14.341,179.263H193.181z M315.788,280.569l2.172-21.723
		c0.002-0.02,6.65-66.503,6.65-66.503l22.89-15.26l7.855,5.237l6.955,76.51c0.001,0.009,1.976,21.739,1.976,21.739L315.788,280.569z
		"/>
	<circle cx="247.5" cy="328.285" r="7.5"/>
	<circle cx="222.5" cy="303.285" r="7.5"/>
</g>
<g>
</g>
<g>
</g>
<g>
</g>
<g>
</g>
<g>
</g>
<g>
</g>
<g>
</g>
<g>
</g>
<g>
</g>
<g>
</g>
<g>
</g>
<g>
</g>
<g>
</g>
<g>
</g>
<g>
</g>
</svg>
