<?xml version="1.0" encoding="iso-8859-1"?>
<!-- Uploaded to: SVG Repo, www.svgrepo.com, Generator: SVG Repo Mixer Tools -->
<svg fill="#ffffff" version="1.1" id="Layer_1" xmlns="http://www.w3.org/2000/svg" xmlns:xlink="http://www.w3.org/1999/xlink" 
	 viewBox="0 0 511.999 511.999" xml:space="preserve">
		<path d="M509.307,93.58l-52.227-52.228c-2.811-2.809-7.314-2.974-10.323-0.382l-29.985,25.852V7.59c0-4.193-3.397-7.59-7.59-7.59
			H96.768c-4.193,0-7.59,3.397-7.59,7.59v281.434l-77.659-39.779c-2.35-1.205-5.163-1.099-7.419,0.278
			c-2.256,1.379-3.631,3.832-3.631,6.476v78.163c0,2.622,1.354,5.059,3.581,6.444l85.128,52.97v110.832
			c0,4.193,3.397,7.59,7.59,7.59h312.413c4.193,0,7.59-3.397,7.59-7.59V196.848l23.418-23.417c0.002-0.002,0.003-0.003,0.005-0.005
			l69.112-69.112C512.271,101.349,512.271,96.544,509.307,93.58z M89.178,375.699l-73.529-45.753V291.12
			c17.704,17.345,49.072,44.746,73.529,48.086V375.699z M89.178,323.907c-20.459-4.046-53.996-33.49-73.529-54.479v-1.012
			l73.529,37.664V323.907z M427.264,164.888l-23.449,23.449c-1.423,1.424-2.222,3.354-2.222,5.368V496.82h-27.562V363.47
			c0-4.193-3.397-7.59-7.59-7.59c-4.193,0-7.59,3.397-7.59,7.59v133.35h-41.069V313.019c8.944-9.087,39.789-42.792,44.62-79.992
			c0.539-4.156-2.392-7.964-6.55-8.504c-4.156-0.549-7.964,2.391-8.504,6.55c-4.838,37.261-42.003,72.915-42.374,73.267
			c-1.514,1.433-2.372,3.427-2.372,5.511v186.97H263.59V341.809c0-4.193-3.397-7.59-7.59-7.59c-4.193,0-7.59,3.397-7.59,7.59V496.82
			h-37.366v-57.993c0-4.193-3.397-7.59-7.59-7.59c-4.193,0-7.59,3.397-7.59,7.59v57.993h-37.366V367.76
			c0-4.193-3.397-7.59-7.59-7.59c-4.193,0-7.59,3.397-7.59,7.59v129.06h-38.959V15.18h50.525v129.079c0,4.193,3.397,7.59,7.59,7.59
			c4.193,0,7.59-3.397,7.59-7.59V15.18h38.857v89.101c-3.041,13.815-32.766,158.131,44.359,187.742
			c0.896,0.343,1.815,0.506,2.719,0.506c3.051,0,5.928-1.853,7.088-4.871c1.502-3.913-0.452-8.303-4.365-9.806
			c-67.07-25.75-35.142-169.594-34.81-171.044c0.125-0.554,0.19-1.12,0.19-1.688V15.18h51.018v35.575c0,4.193,3.397,7.59,7.59,7.59
			c4.193,0,7.59-3.397,7.59-7.59V15.18h63.82v129.079c0,4.193,3.397,7.59,7.59,7.59c4.193,0,7.59-3.397,7.59-7.59V15.18h32.294
			v68.207c0,2.968,1.73,5.664,4.429,6.9c2.698,1.236,5.869,0.786,8.117-1.152l36.948-31.857
			C444.861,72.278,427.991,117.177,427.264,164.888z M443.351,148.801c3.165-33.767,13.628-64.725,19.569-80.141l30.286,30.286
			L443.351,148.801z"/>
		<path d="M323.625,155.419c-6.008-26.683-16.736-50.307-27.333-60.184c-8.346-7.778-15.313-6.081-18.718-4.374
			c-20.36,10.18-37.081,65.926-40.226,76.996c-1.146,4.032,1.195,8.23,5.227,9.375c4.028,1.142,8.229-1.195,9.375-5.225
			c6.949-24.441,21.302-60.996,31.869-67.272c1.587,0.772,5.935,4.532,11.475,15.259c15.289,29.61,24.344,79.524,12.307,108.533
			c-6.986,16.838-16.347,26.084-25.675,25.332c-10.771-0.851-21.316-14.043-25.644-32.079c-0.979-4.075-5.074-6.584-9.151-5.609
			c-4.076,0.979-6.588,5.076-5.609,9.151c5.936,24.736,21.693,42.285,39.209,43.67c0.706,0.057,1.458,0.089,2.253,0.089
			c9.972,0,26.376-5.177,38.641-34.737C332.773,207.471,327.663,173.36,323.625,155.419z"/>
		<path d="M204.637,323.933c-21.757-21.756-46.436-83.049-46.684-83.665c-1.557-3.893-5.98-5.783-9.866-4.227
			c-3.892,1.556-5.785,5.973-4.228,9.865c1.055,2.635,26.086,64.805,50.043,88.76c20.031,20.033,14.235,57.159,14.176,57.52
			c-0.689,4.135,2.105,8.045,6.239,8.736c0.423,0.07,0.843,0.104,1.257,0.104c3.644,0,6.858-2.631,7.479-6.343
			C223.358,392.85,230.235,349.532,204.637,323.933z"/>
		<path d="M130.172,89.428c-4.193,0-7.59,3.397-7.59,7.59v82.237c0,4.193,3.397,7.59,7.59,7.59c4.193,0,7.59-3.397,7.59-7.59V97.018
			C137.762,92.827,134.365,89.428,130.172,89.428z"/>
</svg>